name rise32.9588peak41.5061fall63.4684.mot
datacolumns 19
datarows 33
range 19.57658900000000 19.62992800000000
endheader
time	ground_force1_vx	ground_force1_vy	ground_force1_vz	ground_force1_px	ground_force1_py	ground_force1_pz	ground_force2_vx	ground_force2_vy	ground_force2_vz	ground_force2_px	ground_force2_py	ground_force2_pz	ground_torque1_x	ground_torque1_y	ground_torque1_z	ground_torque2_x	ground_torque2_y	ground_torque2_z	
19.57658900000000	48.74977600000000	758.37387300000000	56.37690100000000	0.26055200000000	0.00000000000000	0.12365500000000	0.00000000000000	0.00000000000000	0.00000000000000	0.00000000000000	0.00000000000000	0.00000000000000	0.00000000000000	17.11577900000000	0.00000000000000	0.00000000000000	0.00000000000000	0.00000000000000	
19.57825700000000	47.94416100000000	759.37147200000004	56.32418000000000	0.25946000000000	0.00000000000000	0.12370400000000	0.00000000000000	0.00000000000000	0.00000000000000	0.00000000000000	0.00000000000000	0.00000000000000	0.00000000000000	17.12697200000000	0.00000000000000	0.00000000000000	0.00000000000000	0.00000000000000	
19.57992900000000	47.15330300000000	760.29268500000001	56.27138600000000	0.25841000000000	0.00000000000000	0.12375100000000	0.00000000000000	0.00000000000000	0.00000000000000	0.00000000000000	0.00000000000000	0.00000000000000	0.00000000000000	17.13919100000000	0.00000000000000	0.00000000000000	0.00000000000000	0.00000000000000	
19.58159600000000	46.37762000000000	761.13755900000001	56.21878200000000	0.25740300000000	0.00000000000000	0.12379700000000	0.00000000000000	0.00000000000000	0.00000000000000	0.00000000000000	0.00000000000000	0.00000000000000	0.00000000000000	17.15243800000000	0.00000000000000	0.00000000000000	0.00000000000000	0.00000000000000	
19.58326100000000	45.61740800000000	761.90616499999999	56.16656100000000	0.25643600000000	0.00000000000000	0.12384300000000	0.00000000000000	0.00000000000000	0.00000000000000	0.00000000000000	0.00000000000000	0.00000000000000	0.00000000000000	17.16668700000000	0.00000000000000	0.00000000000000	0.00000000000000	0.00000000000000	
19.58492900000000	44.87285100000000	762.59861100000001	56.11484700000000	0.25550700000000	0.00000000000000	0.12388700000000	0.00000000000000	0.00000000000000	0.00000000000000	0.00000000000000	0.00000000000000	0.00000000000000	0.00000000000000	17.18188100000000	0.00000000000000	0.00000000000000	0.00000000000000	0.00000000000000	
19.58659300000000	44.14402000000000	763.21505600000000	56.06370100000000	0.25461400000000	0.00000000000000	0.12393100000000	0.00000000000000	0.00000000000000	0.00000000000000	0.00000000000000	0.00000000000000	0.00000000000000	0.00000000000000	17.19793500000000	0.00000000000000	0.00000000000000	0.00000000000000	0.00000000000000	
19.58825800000000	43.43088200000000	763.75571300000001	56.01312100000000	0.25375600000000	0.00000000000000	0.12397500000000	0.00000000000000	0.00000000000000	0.00000000000000	0.00000000000000	0.00000000000000	0.00000000000000	0.00000000000000	17.21474000000000	0.00000000000000	0.00000000000000	0.00000000000000	0.00000000000000	
19.58992900000000	42.73330500000000	764.22086700000000	55.96305200000000	0.25292900000000	0.00000000000000	0.12401700000000	0.00000000000000	0.00000000000000	0.00000000000000	0.00000000000000	0.00000000000000	0.00000000000000	0.00000000000000	17.23216200000000	0.00000000000000	0.00000000000000	0.00000000000000	0.00000000000000	
19.59159100000000	42.05106400000000	764.61088199999995	55.91338300000000	0.25213200000000	0.00000000000000	0.12406000000000	0.00000000000000	0.00000000000000	0.00000000000000	0.00000000000000	0.00000000000000	0.00000000000000	0.00000000000000	17.25004900000000	0.00000000000000	0.00000000000000	0.00000000000000	0.00000000000000	
19.59325700000000	41.38384800000000	764.92620299999999	55.86395900000000	0.25136100000000	0.00000000000000	0.12410100000000	0.00000000000000	0.00000000000000	0.00000000000000	0.00000000000000	0.00000000000000	0.00000000000000	0.00000000000000	17.26822800000000	0.00000000000000	0.00000000000000	0.00000000000000	0.00000000000000	
19.59492600000000	40.73126800000000	765.16737400000000	55.81458100000000	0.25061400000000	0.00000000000000	0.12414300000000	0.00000000000000	0.00000000000000	0.00000000000000	0.00000000000000	0.00000000000000	0.00000000000000	0.00000000000000	17.28651400000000	0.00000000000000	0.00000000000000	0.00000000000000	0.00000000000000	
19.59659400000000	40.09286100000000	765.33503399999995	55.76501200000000	0.24988800000000	0.00000000000000	0.12418400000000	0.00000000000000	0.00000000000000	0.00000000000000	0.00000000000000	0.00000000000000	0.00000000000000	0.00000000000000	17.30470400000000	0.00000000000000	0.00000000000000	0.00000000000000	0.00000000000000	
19.59827000000000	39.46810000000000	765.42992800000002	55.71498100000000	0.24918000000000	0.00000000000000	0.12422500000000	0.00000000000000	0.00000000000000	0.00000000000000	0.00000000000000	0.00000000000000	0.00000000000000	0.00000000000000	17.32258700000000	0.00000000000000	0.00000000000000	0.00000000000000	0.00000000000000	
19.59992400000000	38.85640100000000	765.45290999999997	55.66419300000000	0.24848800000000	0.00000000000000	0.12426600000000	0.00000000000000	0.00000000000000	0.00000000000000	0.00000000000000	0.00000000000000	0.00000000000000	0.00000000000000	17.33994500000000	0.00000000000000	0.00000000000000	0.00000000000000	0.00000000000000	
19.60160100000000	38.25712900000000	765.40494600000000	55.61232800000000	0.24780700000000	0.00000000000000	0.12430700000000	0.00000000000000	0.00000000000000	0.00000000000000	0.00000000000000	0.00000000000000	0.00000000000000	0.00000000000000	17.35655000000000	0.00000000000000	0.00000000000000	0.00000000000000	0.00000000000000	
19.60326400000000	37.66960700000000	765.28711699999997	55.55904700000000	0.24713500000000	0.00000000000000	0.12434800000000	0.00000000000000	0.00000000000000	0.00000000000000	0.00000000000000	0.00000000000000	0.00000000000000	0.00000000000000	17.37217300000000	0.00000000000000	0.00000000000000	0.00000000000000	0.00000000000000	
19.60493000000000	37.09312500000000	765.10061800000005	55.50400200000000	0.24647000000000	0.00000000000000	0.12438900000000	0.00000000000000	0.00000000000000	0.00000000000000	0.00000000000000	0.00000000000000	0.00000000000000	0.00000000000000	17.38658400000000	0.00000000000000	0.00000000000000	0.00000000000000	0.00000000000000	
19.60659100000000	36.52694300000000	764.84676000000002	55.44683500000000	0.24580800000000	0.00000000000000	0.12443000000000	0.00000000000000	0.00000000000000	0.00000000000000	0.00000000000000	0.00000000000000	0.00000000000000	0.00000000000000	17.39955200000000	0.00000000000000	0.00000000000000	0.00000000000000	0.00000000000000	
19.60826000000000	35.97030300000000	764.52697200000000	55.38718500000000	0.24514600000000	0.00000000000000	0.12447100000000	0.00000000000000	0.00000000000000	0.00000000000000	0.00000000000000	0.00000000000000	0.00000000000000	0.00000000000000	17.41085000000000	0.00000000000000	0.00000000000000	0.00000000000000	0.00000000000000	
19.60992900000000	35.42243500000000	764.14279499999998	55.32469300000000	0.24448100000000	0.00000000000000	0.12451300000000	0.00000000000000	0.00000000000000	0.00000000000000	0.00000000000000	0.00000000000000	0.00000000000000	0.00000000000000	17.42025600000000	0.00000000000000	0.00000000000000	0.00000000000000	0.00000000000000	
19.61159300000000	34.88256000000000	763.69588199999998	55.25900700000000	0.24381000000000	0.00000000000000	0.12455500000000	0.00000000000000	0.00000000000000	0.00000000000000	0.00000000000000	0.00000000000000	0.00000000000000	0.00000000000000	17.42755600000000	0.00000000000000	0.00000000000000	0.00000000000000	0.00000000000000	
19.61326300000000	34.34990500000000	763.18799500000000	55.18978300000000	0.24313100000000	0.00000000000000	0.12459700000000	0.00000000000000	0.00000000000000	0.00000000000000	0.00000000000000	0.00000000000000	0.00000000000000	0.00000000000000	17.43254400000000	0.00000000000000	0.00000000000000	0.00000000000000	0.00000000000000	
19.61493000000000	33.82370200000000	762.62100199999998	55.11669300000000	0.24244100000000	0.00000000000000	0.12464000000000	0.00000000000000	0.00000000000000	0.00000000000000	0.00000000000000	0.00000000000000	0.00000000000000	0.00000000000000	17.43502500000000	0.00000000000000	0.00000000000000	0.00000000000000	0.00000000000000	
19.61659600000000	33.30319800000000	761.99687200000005	55.03942500000000	0.24173800000000	0.00000000000000	0.12468300000000	0.00000000000000	0.00000000000000	0.00000000000000	0.00000000000000	0.00000000000000	0.00000000000000	0.00000000000000	17.43481800000000	0.00000000000000	0.00000000000000	0.00000000000000	0.00000000000000	
19.61826600000000	32.78765800000000	761.31766800000003	54.95768900000000	0.24101900000000	0.00000000000000	0.12472600000000	0.00000000000000	0.00000000000000	0.00000000000000	0.00000000000000	0.00000000000000	0.00000000000000	0.00000000000000	17.43175300000000	0.00000000000000	0.00000000000000	0.00000000000000	0.00000000000000	
19.61992600000000	32.27637700000000	760.58554400000003	54.87121700000000	0.24028200000000	0.00000000000000	0.12477100000000	0.00000000000000	0.00000000000000	0.00000000000000	0.00000000000000	0.00000000000000	0.00000000000000	0.00000000000000	17.42567800000000	0.00000000000000	0.00000000000000	0.00000000000000	0.00000000000000	
19.62159600000000	31.76867600000000	759.80273999999997	54.77977100000000	0.23952500000000	0.00000000000000	0.12481500000000	0.00000000000000	0.00000000000000	0.00000000000000	0.00000000000000	0.00000000000000	0.00000000000000	0.00000000000000	17.41645800000000	0.00000000000000	0.00000000000000	0.00000000000000	0.00000000000000	
19.62325600000000	31.26391400000000	758.97157000000004	54.68313800000000	0.23874700000000	0.00000000000000	0.12486000000000	0.00000000000000	0.00000000000000	0.00000000000000	0.00000000000000	0.00000000000000	0.00000000000000	0.00000000000000	17.40397400000000	0.00000000000000	0.00000000000000	0.00000000000000	0.00000000000000	
19.62492600000000	30.76148900000000	758.09442200000001	54.58113900000000	0.23794400000000	0.00000000000000	0.12490600000000	0.00000000000000	0.00000000000000	0.00000000000000	0.00000000000000	0.00000000000000	0.00000000000000	0.00000000000000	17.38812800000000	0.00000000000000	0.00000000000000	0.00000000000000	0.00000000000000	
19.62659400000000	30.26084300000000	757.17374700000005	54.47362500000000	0.23711700000000	0.00000000000000	0.12495200000000	0.00000000000000	0.00000000000000	0.00000000000000	0.00000000000000	0.00000000000000	0.00000000000000	0.00000000000000	17.36884000000000	0.00000000000000	0.00000000000000	0.00000000000000	0.00000000000000	
19.62825700000000	29.76146300000000	756.21205099999997	54.36048300000000	0.23626400000000	0.00000000000000	0.12499900000000	0.00000000000000	0.00000000000000	0.00000000000000	0.00000000000000	0.00000000000000	0.00000000000000	0.00000000000000	17.34605100000000	0.00000000000000	0.00000000000000	0.00000000000000	0.00000000000000	
19.62992800000000	29.26288600000000	755.21188900000004	54.24163300000000	0.23538300000000	0.00000000000000	0.12504600000000	0.00000000000000	0.00000000000000	0.00000000000000	0.00000000000000	0.00000000000000	0.00000000000000	0.00000000000000	17.31972100000000	0.00000000000000	0.00000000000000	0.00000000000000	0.00000000000000	
